<svg xmlns="http://www.w3.org/2000/svg" width="198" height="44" viewBox="0 0 198 44"><path fill="#141215" d="M182.455 25.305h-3.553V14.703c0-3.128-1.37-5.266-5.074-5.266-4.424 0-5.764 3.59-5.764 4.514v11.355h-3.615V0h3.614v9.19h.062s1.76-2.904 6.416-2.904c4.424 0 7.912 2.474 7.912 7.224v11.795z"/><g fill="#4F4D50"><path d="M64.585 43.54c-.764.36-1.798.44-2.722.44-1.1 0-2.215-.053-3.447-.132V42.6c1.18.12 2.4.188 3.366.188.79 0 1.448-.054 1.917-.174.75-.215.937-.698.937-1.262 0-.63-.228-1.018-.95-1.246-.686-.2-1.328-.296-2.186-.44-2.065-.35-3.1-.914-3.1-2.577 0-.9.31-1.77 1.355-2.254.75-.35 1.77-.415 2.59-.415.965 0 1.97.054 3.056.15v1.19c-1.07-.12-2.17-.187-3.083-.187-.617 0-1.22.054-1.676.176-.724.212-.91.628-.91 1.18 0 .603.213.977.91 1.19.632.19 1.327.296 2.105.417 2.118.337 3.23.925 3.23 2.683.004.925-.317 1.823-1.39 2.32zM80.114 43.043c-1.06.737-2.47.938-4.117.938-1.743 0-3.125-.228-4.17-.95-1.18-.832-1.65-2.187-1.65-3.836s.47-3.004 1.65-3.835c1.045-.74 2.455-.94 4.103-.94 1.743 0 3.124.228 4.184.952 1.166.832 1.635 2.186 1.635 3.836 0 1.662-.47 3.004-1.636 3.835zm-4.13-7.428c-3.07 0-4.36.897-4.36 3.54 0 2.547 1.248 3.646 4.32 3.646s4.357-.898 4.357-3.552c0-2.534-1.246-3.633-4.317-3.633zM87.944 40.146v3.648H86.55v-9.186h7.12v1.207h-5.727v3.164h5.162v1.165h-5.16zM101.525 43.794v-8.006h-4.06v-1.18h9.52v1.18h-4.063v8.006h-1.397zM121.227 43.794l-2.91-7.375h-.055l-2.842 7.374h-1.502l-3.688-9.186h1.527l2.926 7.563h.066l2.853-7.562h1.502l2.857 7.563h.066l2.91-7.562h1.477l-3.688 9.186h-1.5zM137.666 43.794l-1.273-2.48h-5.46l-1.26 2.48h-1.515l4.76-9.186h1.557l4.76 9.186h-1.57zm-3.982-7.832h-.055l-2.16 4.238h4.372l-2.158-4.238zM150.55 43.794l-2.733-3.514c-.28.027-.576.027-.873.027h-2.05v3.486h-1.396v-9.186h3.648c1.795 0 3.004.066 3.86.71.632.47.913 1.167.913 2.092 0 .884-.24 1.555-.872 2.05-.402.35-.967.552-1.65.67l2.87 3.663h-1.717zm-3.296-8.06h-2.36v3.487h2.374c2.104 0 3.23-.227 3.23-1.77 0-1.582-1.287-1.716-3.244-1.716zM157.217 43.794v-9.186h6.893v1.18h-5.498v2.736h5.094v1.11h-5.094v2.98h5.725v1.18h-7.12z"/></g><path fill="#E86B05" d="M38.31 38.51c-.275.186-.608.393-.913.568l-.093.055.093.01c5.97 1.64 11.884 1.578 13.02-2.147 1.47-4.81-8.032-9.97-12.516-12.43-.96-.526-1.377-.197-.763.508 2.83 3.258 6.862 9.67 1.174 13.437z"/><path fill="#C7001B" d="M37.31 39.13s-7.52 4.725-20.786 4.725c-5.14 0-9.47-.788-11.3-2.588-1.927-1.896-2.972-5.09-2.972-8.027 0-2.516 1.045-4.63 3.224-4.63 5.595-.002 23.02 8.862 31.834 10.52z"/><path fill="#E86B05" d="M12.254 11.73c.276-.184.61-.392.914-.567l.094-.054-.094-.012C7.198 9.458 1.286 9.52.153 13.246c-1.47 4.81 8.027 9.97 12.51 12.43.963.524 1.38.196.766-.508-2.83-3.258-6.86-9.672-1.176-13.44z"/><path fill="#C7001B" d="M13.256 11.11s7.52-4.723 20.787-4.723c5.14 0 9.468.786 11.297 2.587 1.928 1.896 2.974 5.09 2.974 8.027 0 2.517-1.046 4.634-3.224 4.634-5.595 0-23.02-8.863-31.834-10.523z"/><path fill="#141215" d="M110.758 9.47c-3.46 0-6.5 1.962-6.5 6.248 0 4.285 2.674 6.427 6.465 6.427 1.984 0 6.176-.806 6.176-6.354-.002-5.548-4.18-6.32-6.142-6.32zm.187 15.835c-4.473 0-6.688-2.842-6.688-2.842v7.87h-3.447V6.592h3.262l.186 2.322s2.17-2.568 6.648-2.568c3.943 0 9.617 2.01 9.617 9.406 0 7.396-5.105 9.552-9.578 9.552zM137.58 15.79c0 5.088 4.19 6.355 6.176 6.355 3.79 0 6.465-2.142 6.465-6.427 0-4.286-3.038-6.248-6.5-6.248-1.962 0-6.14 1.154-6.14 6.32zm-3.627-.037c0-7.02 5.676-9.407 9.62-9.407 4.478 0 6.647 2.57 6.647 2.57l.184-2.323h3.262V25.3h-3.252l-.193-2.47s-2.23 2.475-6.687 2.475c-4.472 0-9.58-2.598-9.58-9.552zM134.213 9.818v-3.16c-3.523-.323-5.998.52-7.928 2.536L126.1 6.62h-3.386v18.686h3.57v-9.682c0-2.703 2.18-6.128 7.93-5.806zM69.395 14.142c-3.594-.642-7.126-1.09-7.126-2.765 0-1.09 1.082-2.05 4.227-2.05 2.338 0 5.034.54 5.766 2.196l3.313-1.393c-1.27-2.545-5.02-3.77-9.326-3.77-3.768 0-7.812 1.426-7.812 5.238 0 3.303 3.007 4.33 7.964 5.263 3.31.624 6.366.94 6.366 2.725 0 1.126-1.504 2.57-5.258 2.57-2.67 0-5.363-.56-6.188-2.46l-3.21 1.35c1.315 2.935 4.813 4.452 8.862 4.452 8.084 0 9.648-3.847 9.648-6.03.002-3.638-3.618-4.68-7.227-5.325zM88.477 6.346c-4.775 0-10.426 2.386-10.426 9.407 0 6.954 5.086 9.656 10.427 9.656 5.342 0 10.426-2.703 10.426-9.657 0-7.02-5.65-9.407-10.426-9.407zm0 15.8c-2.934 0-6.798-1.268-6.798-6.355 0-5.166 4.285-6.215 6.797-6.215 2.514 0 6.8 1.05 6.8 6.216 0 5.087-3.864 6.355-6.8 6.355zM197.152 9.818v-3.16c-3.523-.323-5.998.52-7.926 2.536l-.186-2.575h-3.385v18.686h3.57v-9.682c.002-2.703 2.18-6.128 7.927-5.806z"/></svg>